<svg width="580" height="400" xmlns="http://www.w3.org/2000/svg">
 <!-- Created with Method Draw - http://github.com/duopixel/Method-Draw/ -->

 <g>
  <title>background</title>
  <rect x="-1" y="-1" width="582" height="402" id="canvas_background" fill="#fff"/>
  <g id="canvasGrid" display="none">
   <rect id="svg_3" width="100%" height="100%" x="0" y="0" stroke-width="0" fill="url(#gridpattern)"/>
  </g>
 </g>
 <g>
  <title>Layer 1</title>
  <path stroke="#000" fill="#33666C" stroke-width="0" stroke-opacity="null" d="m413.249718,152.62548c0.506396,0.374183 1.578089,-0.334505 2.098759,-0.422072c-0.586016,-0.850527 1.621268,-4.994171 0.85945,-6.498964c-0.23439,-3.402129 -6.167663,-11.081722 -6.914892,-11.972884c0.285042,-0.597611 3.479382,-0.041507 3.384039,0.04423c-1.333015,1.198861 4.49824,8.079177 5.171685,12.059515c1.240884,-0.076696 2.870842,-0.595739 3.594205,0.261702c0.675502,-0.824104 5.887659,-7.120765 6.172596,-12.561709c0.040828,-0.779724 2.869709,-0.286253 2.337557,0.188985c-0.852984,3.387599 -6.868208,12.898788 -7.338141,13.245079c0.546909,2.965931 0.325492,3.169212 3.818813,5.47543c1.572148,-4.121539 4.921909,-7.620129 7.989965,-11.102252c3.464352,-3.909727 5.789356,-7.65519 9.605545,-11.725244c5.023675,-5.170136 11.439498,-9.887691 17.315611,-12.703804c4.087775,-1.959055 10.936754,-3.638515 11.986701,-3.748421c1.945081,-0.210834 3.704053,-0.173412 6.009598,0.209047c3.401903,0.564274 6.723577,0.879418 10.295237,2.751225c3.358388,2.402317 2.197439,5.413159 1.571246,8.233356c-5.172483,6.368422 -10.470242,13.995465 -12.13872,21.798346c-0.560973,2.889235 -1.569609,7.86796 -3.950114,10.995367c-3.827062,4.810548 -8.510824,4.632647 -12.911517,5.284765c2.681437,0.857165 5.589728,3.656024 8.198871,6.468541c4.070142,4.423749 6.053386,8.960361 5.002306,13.89926c-0.223747,1.035938 -4.104547,8.893282 -6.002692,11.358721c-7.204531,9.387944 -17.012916,15.754685 -24.918265,14.721385c-2.846828,-0.372098 -10.699363,-7.045495 -12.11118,-9.014655c-3.50474,-4.888286 -6.383496,-10.784491 -6.501824,-15.932266c-0.435676,-0.485982 -0.968458,-0.521894 -0.733543,-1.172076c-0.436557,1.488837 -1.822827,6.337339 -3.875111,9.402496c-2.967046,4.431365 -5.683035,-2.192844 -6.782374,-7.564815c-0.376879,-1.84149 -0.100276,-2.160294 -0.539835,-3.261439c-2.07846,0.880482 -0.984075,3.433425 -1.799758,5.495748c-0.69154,1.795897 -3.788522,7.281284 -4.643773,8.5318c-2.733832,3.997358 -8.872484,10.046295 -13.324418,11.497752c-4.131941,1.347125 -7.633931,1.158119 -10.954723,-0.743451c-4.283247,-2.452674 -10.319608,-8.148938 -14.033212,-12.780606c-4.701206,-5.730963 -8.810161,-14.34148 -4.899427,-20.40665c2.496126,-3.784311 7.194644,-9.423941 11.786002,-10.809765c-3.241046,-0.443177 -10.411823,-2.828006 -13.078588,-9.452066c-0.855944,-2.10015 -1.17348,-5.365524 -1.391182,-7.701846c-0.354229,-3.857178 -1.930555,-8.288735 -3.239094,-12.086705c-1.051898,-3.472273 -2.911104,-7.917552 -4.856836,-11.716415c-2.039122,-3.986508 -3.710896,-10.57838 -0.1622,-13.824373c1.239624,-1.134057 5.07798,-2.456759 5.880144,-2.551071c2.80409,-0.334313 6.624393,1.203094 9.460348,2.125445c1.857967,0.609291 10.0103,3.861156 12.264836,5.65165c14.863022,11.80394 25.431714,26.507306 32.297906,40.053701z" id="svg_2" transform="rotate(38 421.5992431640625,156.87141418457028) "/>
  <text fill="#C97A86" x="87.879845" y="104.813573" id="svg_1" font-size="10" font-family="'Times New Roman', Times, serif" text-anchor="start" xml:space="preserve" transform="rotate(0.04407285898923874 255.57656860348874,209.50000000001378) matrix(11.0213992104599,0,0,12.61057563242618,-869.0366749303336,-1069.4882245737344) " stroke="#000" font-weight="bold" opacity="0.94">NSFM</text>
 </g>
</svg>